<?xml version="1.0" encoding="utf-8"?>
<!-- Generator: Adobe Illustrator 24.1.2, SVG Export Plug-In . SVG Version: 6.00 Build 0)  -->
<svg version="1.1" id="Layer_1" xmlns="http://www.w3.org/2000/svg" xmlns:xlink="http://www.w3.org/1999/xlink" x="0px" y="0px"
	 viewBox="0 0 217.3 229.4" style="enable-background:new 0 0 217.3 229.4;" xml:space="preserve">
<style type="text/css">
	.st0{fill:#FFFFFF;}
</style>
<g id="Layer_2_1_">
	<g id="Layer_1-2">
		<g id="Layer_2-2">
			<g id="Layer_1-2-2">
				<path class="st0" d="M6.2,81.4c1.3,2.7,2.1,5,3.4,6.8c6.1,8,14.3,13.3,23.3,17.5c12.4,5.7,25.7,8.3,39.1,10.7
					c14.6,2.5,29.4,3.5,44.2,3.9c0.5,0.1,0.9,0.3,1.2,0.8c1.4,2,2.8,4.1,4.6,6.8l-24-1.3c-0.4,3.9-0.7,7.9-1.4,11.7
					C94.9,149,90.2,159,83,167.1c-4.6,5.1-6.7,5-10.2-0.9c-7.8-13-8.8-26.5-2.3-40.4l1.1-2.4c-3.3-0.6-6.5-1.3-9.7-1.8
					c-13.7-2.6-27-6.7-39.3-13.6C16,104.4,10,99.4,5.2,93.5c-2.4-2.8-4.1-6.1-4.8-9.7C-1.2,75.6,2.8,69,10.9,66.9
					c2.2-0.4,4.1-2,4.9-4.1C21.6,50.5,31.5,43,44.7,39.8c10-2.6,20.3-4,30.7-4c14.4,0.3,28.8,0.3,43.2,0.6c4.5,0.2,9,0.7,13.4,1.5
					c1.4,0.4,2.9-0.1,3.7-1.3c9-11,19.4-20.4,32.2-27c11.6-5.9,23.8-9.7,36.9-9.6c2.6,0,5.3,0.4,7.8,1c2.4,0.5,4.2,2.4,4.6,4.8
					c0.4,2.5-1.1,4-2.9,5.5c-4.6,3.7-9.4,7.3-13.6,11.4c-7.2,6.7-12.3,15.3-14.9,24.7c-0.5,2.4-0.9,4.7-1,7.2
					c-0.3,3.8,1.1,6.8,3.9,9.5c22.7,22.2,28.1,48.8,17.9,78.3c-7.9,22.8-24.4,37.7-46.9,46c-0.6,0.2-1.1,0.4-1.9,0.8
					c1.7,1.2,3.4,2.3,4.9,3.4c9.4,7.3,15,16.6,14.4,28.8c-0.1,1.9-0.5,3.9-1,5.7c-0.4,0.8-0.9,1.6-1.6,2.3c-0.8-0.6-1.9-1.1-2.2-1.9
					c-2.6-5.9-6.4-10.8-12.1-14.1c-4.5-2.4-9.3-3.9-14.4-4.4c-1-0.1-2-0.3-3-0.4c-4.9-0.5-9.3-2.1-12.2-6.9
					c-3.5,6.1-9.5,6.4-15.3,7.4c-2.8,0.5-5.7,1.1-8.4,1.8c-8.2,2.1-14.7,8.1-17.6,16c-0.4,1.1-0.7,2.8-2.3,2.2
					c-1-0.5-1.8-1.4-2.1-2.6c-2.9-11.5,1-21,8.8-29.2c5.7-6,13-8.9,20.7-11.2c4.5-1.3,9-2.6,13.3-4.3c10.5-4,18.1-11.6,24.4-20.7
					c1.6-2.3,3-4.7,4.6-7.3l-5.9-3.4c-15.1-8.7-25.9-21.2-32.8-37.2c-3.3-7.2-3.9-15.3-1.9-23c-2.7,1.4-4.2,4.5-5,9.9l-2.3-1.9
					c-8.3-6.6-16.8-12.7-27.5-15.3c-5.1-1.2-10.3-1.8-15.5-0.4c-4.3,1.3-9,0.7-12.9-1.6c-4.4-2.6-9.5-3.7-14.6-3L6.2,81.4z
					 M149.7,106.4c8.6,7.6,15.3,16.4,19.3,27.2c5.1,13.8,3.5,26.4-6.2,37.8c-4,4.5-8.7,8.4-13.8,11.6c-0.6,0.4-1.1,0.8-2.1,1.5
					c20.8-2.4,34.5-22.8,28.6-44.9c4.4,11.7,2.5,22.5-4.4,32.8c0.5-0.1,0.9-0.4,1.2-0.7c9.8-8.8,13.5-19.8,11.6-32.6
					c-1.6-10.8-8-18.6-16.5-24.8C162.2,110.3,156.1,107.7,149.7,106.4L149.7,106.4z M124.8,53.8c-1.9-0.7-3.9-1.3-5.8-2.1
					c-0.9-0.5-1.6-1.2-1.9-2.2c-0.9-3.3-3.6-5-6.9-4.2c-2.9,0.9-4.7,3.9-4,6.9c0.9,2.9,4.5,4.8,7.4,3.2c2.2-1.2,3.9-0.7,5.8,0.1
					c1.2,0.5,2.5,0.8,3.7,1.4c0.6,0.3,1,0.9,1.1,1.6c0.6,6.7,5.5,10.7,12.2,9.7c0.9-0.1,1.8,0.1,2.5,0.7c5.7,5.6,11.4,11.3,17,17
					c2.9,2.9,3.3,6.3,1.4,10c-0.9,1.6-0.5,3.7,1,4.8c1.6,1.1,3.8,0.9,5.1-0.5c1.3-1.4,1.8-3.3,0.4-4.6c-1.9-1.6-1.8-3.5-1.6-5.5
					c0.2-2.2-0.6-4.3-2.2-5.7c-3.7-3.5-7.2-7.1-10.7-10.8c-2.6-2.7-5.3-5.5-7.9-8.2c4-5,4.1-10.7,0-14.3
					C136.4,46.7,131,47.5,124.8,53.8z M129.6,87.4c-0.3,4.1,2.1,6.7,5.4,6.7c3.1,0,5.5-2.5,5.6-5.5c0,0,0,0,0,0v-0.1
					c-0.2-3.2-3.3-6-6.3-5c-2.4,0.8-3.6-0.2-4.9-1.6c-1-1.1-2.1-2.1-3.2-3.1c-1.3-1-2-2.5-2-4.1c0-3.6-4.7-6.1-7.3-3.8
					c-1.9,1.7-3.7,1.6-5.7,1.5c-2.3-0.1-4.5-0.3-6.8-0.3c-1.5,0.2-3-0.6-3.8-1.9c-1.7-2.5-5.7-2.7-7.9-0.8c-2.2,2.1-2.4,5.5-0.5,7.8
					c1.9,2.1,6.2,2.6,7.7,0.3s3.5-2.1,5.6-2.1s4.2,0.2,6.3,0.2c1.7,0.1,3.2,0,4.2,2c0.7,1,1.9,1.6,3.1,1.6c2.7-0.5,3.9,1.3,5.4,2.8
					c1.3,1.3,2.7,2.6,4,4C129,86.4,129.3,86.9,129.6,87.4z M174.2,43.3c0,5.7,0.1,11.3-0.1,16.9c-0.1,1.1-0.6,2.1-1.3,2.9
					c-1.4,1.6-1.3,4,0.1,5.5c1.7,1.6,4.4,1.7,6.1,0.1c1.6-1.5,1.5-3.7,0-5.5c-0.7-0.8-1.1-1.8-1.1-2.8c-0.1-5.3,0-10.6-0.1-15.9
					c-0.1-1.8,0.4-3.5,1.6-4.8c2.6-3.1,2.5-7.5-0.1-10.5c-2.4-3.1-6.7-4.2-10.3-2.6c-3.4,1.8-5.3,5.5-4.7,9.3
					C165.1,40.5,168.1,42.8,174.2,43.3L174.2,43.3z M195.5,145.8v-2.5c0-19.1-0.1-38.2,0-57.2c0.1-1.3,0.5-2.5,1.2-3.5
					c1.1-1.7,1.1-3.5-0.2-4.9c-1.4-1.4-3.7-1.6-5.3-0.5c-1.5,1.3-1.8,3.4-0.7,5.1c0.7,1.1,1.1,2.4,1.2,3.7c0,19.2,0.3,45,0.6,54.7
					C193.1,143.6,194,145.8,195.5,145.8L195.5,145.8z M159,60.4c0-3.2-0.1-6.1,0.1-9c0.1-1.1,0.6-2.1,1.3-2.9c1.5-1.7,2-4,0.5-5.2
					c-1.9-1.4-1.9-3.2-1.9-5.2c0-3.3-0.1-6.7,0-10c0-0.6-4.1,0-3.9,11.7c-0.1,1.1-0.5,2.1-1.2,3c-1.4,1.6-1.3,4.1,0.2,5.6
					c0.6,0.8,1,1.7,1.1,2.7c0.1,3,0,6,0,9.1L159,60.4z M179.8,118.4c0.1-0.6,0.1-0.9,0.1-1.2c0-10.3,0.1-20.6,0-30.8
					c-0.1-0.9-0.5-1.7-1.1-2.4c-3.6-3.7-7.3-7.2-10.8-11c-0.9-1-1.5-2.2-1.7-3.6c-0.5-2.3-1.8-3.9-3.7-3.9c-2-0.1-3.6,1.3-3.9,3.3
					c-0.4,2.1,0.9,3.8,3.2,4.5c0.8,0.2,1.6,0.5,2.2,1.1c3.6,3.5,7.1,7,10.5,10.6c0.9,1.1,1.5,2.4,1.5,3.9c0.1,7.6,0.2,15.1,0,22.7
					C176,114.5,177.6,116.3,179.8,118.4L179.8,118.4z M100.7,44.5V44c-0.7-0.1-1.5-0.3-2.2-0.4c-12-1.4-24.1-1.3-36.1,0.1
					c-8,1-15.9,2.3-23.3,5.6c-5.9,2.5-10.7,6.8-13.9,12.3c2.3-1.9,4-3.6,6.1-5c2.1-1.4,4.3-2.6,6.6-3.5c4-1.6,8-2.9,12.2-4
					c9.1-2.3,18.4-3,27.7-3.4C85.4,45.4,93.1,44.9,100.7,44.5z M60.2,75.8c5.7-0.2,10.6-2.8,15.4-5.5c1.5-0.8,1-2.1-0.4-2.5
					c-4.2-1.2-8.3-2.8-12.5-3.3c-4.5-0.6-8.3,1.6-11.3,4.9c-0.4,0.7-0.5,1.5-0.2,2.2C53.6,74.2,56.5,76,60.2,75.8z M164.1,144.7
					c-2.9-23.1-19.9-36.9-34.8-41.4C146.9,112.1,158.6,125.8,164.1,144.7z M90.3,54c0-3.4-2.1-5.6-5.2-5.6c-3,0-5.4,2.4-5.4,5.4
					c0,0,0,0,0,0V54c0,2.8,2.3,5.1,5.1,5.2c0,0,0,0,0,0h0.3c2.8,0.1,5.1-2.1,5.2-4.8V54z"/>
				<path class="st0" d="M55.2,105c25.5,6.6,34.2,7.3,52,8.6c-1,0.4-2.1,0.8-3.2,1C88.5,114.6,63.7,110.2,55.2,105z"/>
				<path class="st0" d="M52.9,95.5c19,7.3,39.1,9.8,59.2,12.3C106.4,110.8,62.8,101.7,52.9,95.5z"/>
				<path class="st0" d="M140.3,58.2c0.2,3.3-2.2,6.2-5.6,6.4c-3.3,0.2-6.2-2.2-6.4-5.6c0-0.4,0-0.7,0-1.1c0-3.2,2.7-5.8,5.9-5.8
					c0,0,0,0,0,0h0.1C137.5,52.3,140.2,54.9,140.3,58.2z"/>
				<path class="st0" d="M114.1,50.9c-0.8,0.6-1.6,1.8-2.4,1.7s-1.6-1.2-2.4-1.8c0.7-0.8,1.3-2.1,2.2-2.3c0.6-0.2,1.7,0.9,2.5,1.5
					L114.1,50.9z"/>
				<path class="st0" d="M137.6,89.1c-0.9,0.5-1.8,1.4-2.7,1.5c-0.6,0-1.3-1.1-2-1.8c0.8-0.8,1.4-1.9,2.3-2.1c0.6-0.1,1.6,1,2.4,1.5
					L137.6,89.1z"/>
				<path class="st0" d="M96.2,70.6c1.1,1.3,2.2,2.1,2.2,2.8s-1.1,1.5-1.8,2.2c-0.7-0.7-1.9-1.2-2.1-2S95.3,72,96.2,70.6z"/>
				<path class="st0" d="M173,39.3c-2.7,0-4.9-2.1-5.1-4.8c0.2-2.6,2.4-4.6,4.9-4.6c2.6,0,4.7,2.1,4.7,4.8
					C177.6,37.3,175.5,39.3,173,39.3z"/>
				<path class="st0" d="M87.8,53.8c-1.2,1-1.9,2.1-2.5,2c-0.8-0.1-1.5-1.2-2.2-1.8c0.7-0.7,1.3-1.8,2.1-2
					C85.7,51.9,86.6,53,87.8,53.8z"/>
			</g>
		</g>
	</g>
</g>
</svg>
